<?xml version="1.0" standalone="no"?><!DOCTYPE svg PUBLIC "-//W3C//DTD SVG 1.1//EN" "http://www.w3.org/Graphics/SVG/1.1/DTD/svg11.dtd"><svg t="1577170597453" class="icon" viewBox="0 0 1024 1024" version="1.1" xmlns="http://www.w3.org/2000/svg" p-id="12706" width="29" height="29" xmlns:xlink="http://www.w3.org/1999/xlink"><defs><style type="text/css"></style></defs><path d="M512 0c282.76736 0 512 229.23264 512 512s-229.23264 512-512 512S0 794.76736 0 512 229.23264 0 512 0z" fill="#91D8F0" p-id="12707"></path><path d="M349.94176 329.41056L521.3184 445.3376l347.136-300.6976C794.71616 73.08288 699.57632 23.5008 593.47968 6.52288L349.94176 329.41056z" fill="#E9AD9A" p-id="12708"></path><path d="M650.88512 19.16928A509.60384 509.60384 0 0 0 593.47968 6.53312L349.94176 329.41056l41.30816 27.94496L650.88512 19.16928z" fill="#DBA391" p-id="12709"></path><path d="M235.52 614.4a10.24 10.24 0 0 0-10.24-10.24h-92.16a10.24 10.24 0 1 0 0 20.48h92.16a10.24 10.24 0 0 0 10.24-10.24z m-10.24 40.96a10.24 10.24 0 0 0 10.24 10.24h40.96a10.24 10.24 0 1 0 0-20.48h-40.96a10.24 10.24 0 0 0-10.24 10.24z m-30.72-10.24h-30.72a10.24 10.24 0 1 0 0 20.48h30.72a10.24 10.24 0 1 0 0-20.48z m112.64 40.96h-92.16a10.24 10.24 0 1 0 0 20.48h92.16a10.24 10.24 0 1 0 0-20.48zM153.6 583.68h40.96a10.24 10.24 0 1 0 0-20.48h-40.96a10.24 10.24 0 1 0 0 20.48z m-40.96-20.48H92.16a10.24 10.24 0 1 0 0 20.48h20.48a10.24 10.24 0 1 0 0-20.48z" fill="#C8ECF8" p-id="12710"></path><path d="M776.06912 737.0752h0.512c-40.25344 0.5632-66.53952 0-66.53952 0H493.35296L214.96832 458.33216 358.48192 317.44l173.83424 123.35104 72.58112 160.22528 0.03072 0.03072c20.60288 0.93184 85.08416 27.21792 113.73568 43.81696 45.74208 26.5216 64.73728 72.0896 58.25536 91.41248l-0.84992 0.79872z" fill="#3DB39E" p-id="12711"></path><path d="M586.73152 529.5104a11.40736 11.40736 0 0 0-14.76608-6.46144l-42.45504 16.61952a11.40736 11.40736 0 0 0 8.30464 21.22752l42.45504-16.61952c5.86752-2.29376 8.74496-8.9088 6.46144-14.76608z m16.67072 41.41056c-2.1504-6.0416-8.33536-9.03168-13.83424-6.656l-39.76192 17.152c-5.48864 2.36544-8.20224 9.18528-6.05184 15.24736 2.1504 6.0416 8.33536 9.03168 13.83424 6.656l39.76192-17.152c5.48864-2.36544 8.20224-9.18528 6.05184-15.24736z m-37.15072-82.37056a11.40736 11.40736 0 0 0-14.76608-6.46144l-42.45504 16.61952c-5.85728 2.29376-8.74496 8.9088-6.46144 14.76608 2.29376 5.85728 8.9088 8.74496 14.76608 6.46144l42.45504-16.61952c5.86752-2.29376 8.74496-8.9088 6.46144-14.76608z" fill="#F6FBFA" p-id="12712"></path><path d="M955.33056 768H68.66944c88.53504 152.9856 253.8496 256 443.33056 256s354.78528-103.0144 443.33056-256z" fill="#324D5B" p-id="12713"></path><path d="M405.23776 350.6176L358.48192 317.44 214.96832 458.33216l44.70784 44.76928z" fill="#39A895" p-id="12714"></path><path d="M362.27072 304.45568c6.53312-8.40704 18.7904-9.96352 27.38176-3.4816l155.68896 115.10784a19.06688 19.06688 0 0 1 3.74784 26.97216c-6.53312 8.41728-18.7904 9.97376-27.38176 3.4816l-155.68896-115.0976a19.07712 19.07712 0 0 1-3.74784-26.9824z" fill="#FFFFFF" p-id="12715"></path><path d="M286.72 409.6a40.96 40.96 0 0 0 40.96-40.96 40.5504 40.5504 0 0 0-3.88096-17.152l-54.8864 53.88288A40.6528 40.6528 0 0 0 286.72 409.6z" fill="#E6C561" p-id="12716"></path><path d="M720.2816 706.3552H503.59296L235.6224 438.03648l-20.66432 20.28544L493.35296 737.0752H710.0416s26.28608 0.5632 66.53952 0h-0.512l0.84992-0.79872c2.38592-7.10656 1.29024-17.79712-3.29728-29.76768-32.69632 0.28672-53.34016-0.1536-53.34016-0.1536z" fill="#37A18E" p-id="12717"></path><path d="M279.67488 482.1504l-44.04224-44.10368-20.66432 20.28544 44.70784 44.76928z" fill="#359C8A" p-id="12718"></path><path d="M773.9392 768H491.71456c-10.57792 0-23.25504-2.94912-30.9248-10.61888L188.35456 485.65248a14.36672 14.36672 0 0 1 0-20.4288l9.07264-10.56768a14.60224 14.60224 0 0 1 20.56192 0s211.7632 209.87904 263.28064 261.39648c9.96352 9.95328 21.46304 11.18208 30.6176 11.18208 63.54944 0 262.0416-0.28672 262.0416-0.28672 8.02816 0 14.5408 6.47168 14.5408 14.4384v12.16512A14.47936 14.47936 0 0 1 773.9392 768z" fill="#EDEDED" p-id="12719"></path></svg>